<svg width="25" height="25" viewBox="0 0 25 25" fill="none" xmlns="http://www.w3.org/2000/svg">
<path d="M1.48877 12.0098C1.48877 5.93328 6.41476 1.00708 12.491 1.00708C18.5672 1.00708 23.4932 5.93328 23.4932 12.0098C23.4932 18.0862 18.5672 23.0125 12.491 23.0125C6.41476 23.0125 1.48877 18.0862 1.48877 12.0098ZM17.772 9.2891C17.9045 9.1468 17.9766 8.95871 17.9732 8.76434C17.9699 8.56998 17.8913 8.38448 17.754 8.24685C17.6164 8.10957 17.4309 8.031 17.2366 8.02764C17.0422 8.02428 16.8541 8.0964 16.7118 8.22884L10.7406 14.2003L8.27013 11.7297C8.12784 11.5973 7.93975 11.5251 7.7454 11.5285C7.55104 11.5318 7.36555 11.6104 7.22792 11.7477C7.09065 11.8853 7.01208 12.0708 7.00872 12.2652C7.00537 12.4596 7.07748 12.6477 7.20992 12.79L10.2105 15.7907C10.3512 15.9312 10.5418 16.0101 10.7406 16.0101C10.9394 16.0101 11.1301 15.9312 11.2707 15.7907L17.772 9.2891Z" fill="#3FB950"/>
</svg>
