<svg width="17" height="16" viewBox="0 0 17 16" fill="none" xmlns="http://www.w3.org/2000/svg">
<path d="M13.3113 5.22024C13.3809 5.28981 13.4362 5.37242 13.4739 5.46337C13.5116 5.55431 13.531 5.65179 13.531 5.75024C13.531 5.84869 13.5116 5.94618 13.4739 6.03712C13.4362 6.12806 13.3809 6.21068 13.3113 6.28024L9.06127 10.5302C8.99171 10.5999 8.90909 10.6552 8.81815 10.6929C8.72721 10.7306 8.62972 10.75 8.53127 10.75C8.43282 10.75 8.33534 10.7306 8.2444 10.6929C8.15345 10.6552 8.07084 10.5999 8.00127 10.5302L3.75127 6.28024C3.61071 6.13968 3.53174 5.94903 3.53174 5.75024C3.53174 5.65181 3.55113 5.55435 3.58879 5.46341C3.62646 5.37247 3.68167 5.28984 3.75127 5.22024C3.82087 5.15064 3.9035 5.09543 3.99444 5.05776C4.08538 5.0201 4.18284 5.00071 4.28127 5.00071C4.48006 5.00071 4.67071 5.07968 4.81127 5.22024L8.53127 8.93924L12.2513 5.22024C12.3208 5.15058 12.4035 5.09531 12.4944 5.0576C12.5853 5.0199 12.6828 5.00049 12.7813 5.00049C12.8797 5.00049 12.9772 5.0199 13.0681 5.0576C13.1591 5.09531 13.2417 5.15058 13.3113 5.22024Z" fill="white"/>
</svg>
