<svg width="25" height="24" viewBox="0 0 25 24" fill="none" xmlns="http://www.w3.org/2000/svg">
<path d="M1.47852 12.0027C1.47852 5.92972 6.40187 1.00635 12.4748 1.00635C18.5478 1.00635 23.4712 5.92972 23.4712 12.0027C23.4712 18.0757 18.5478 22.9991 12.4748 22.9991C6.40187 22.9991 1.47852 18.0757 1.47852 12.0027ZM17.7531 9.28361C17.8854 9.1414 17.9575 8.95341 17.9542 8.75915C17.9508 8.5649 17.8723 8.37951 17.7351 8.24195C17.5975 8.10476 17.4121 8.02623 17.2179 8.02287C17.0236 8.01952 16.8356 8.0916 16.6934 8.22396L10.7254 14.192L8.25625 11.7228C8.11404 11.5904 7.92605 11.5184 7.73179 11.5217C7.53754 11.5251 7.35215 11.6036 7.2146 11.7408C7.0774 11.8784 6.99887 12.0637 6.99551 12.258C6.99216 12.4522 7.06424 12.6402 7.1966 12.7825L10.1956 15.7815C10.3362 15.9219 10.5267 16.0007 10.7254 16.0007C10.9241 16.0007 11.1147 15.9219 11.2552 15.7815L17.7531 9.28361Z" fill="#3FB950"/>
</svg>
