<svg width="17" height="17" viewBox="0 0 17 17" fill="none" xmlns="http://www.w3.org/2000/svg">
<path d="M1.97063 8.50511C2.06847 8.49338 2.16766 8.50105 2.26254 8.52767C2.35741 8.5543 2.44611 8.59936 2.52356 8.66028C2.60102 8.7212 2.6657 8.79679 2.71393 8.88273C2.76216 8.96866 2.79298 9.06326 2.80463 9.16111C2.93207 10.2151 3.36184 11.2097 4.04207 12.0248C4.72229 12.8399 5.6239 13.4408 6.63807 13.7548C7.65224 14.0688 8.73562 14.0826 9.75745 13.7945C10.7793 13.5064 11.6959 12.9287 12.3966 12.1311L11.1926 10.9271C11.1576 10.8921 11.1337 10.8476 11.124 10.799C11.1143 10.7504 11.1193 10.7001 11.1382 10.6544C11.1572 10.6086 11.1893 10.5696 11.2305 10.5421C11.2717 10.5146 11.3201 10.5 11.3696 10.5001H15.0156C15.0819 10.5001 15.1455 10.5264 15.1924 10.5733C15.2393 10.6202 15.2656 10.6838 15.2656 10.7501V14.3961C15.2657 14.4456 15.2511 14.494 15.2236 14.5352C15.1962 14.5764 15.1571 14.6085 15.1114 14.6275C15.0656 14.6465 15.0153 14.6514 14.9667 14.6417C14.9182 14.632 14.8736 14.6082 14.8386 14.5731L13.4586 13.1931C12.5579 14.1886 11.3899 14.9042 10.0939 15.2546C8.79787 15.605 7.42845 15.5754 6.14877 15.1694C4.8691 14.7633 3.73314 13.9979 2.87623 12.9644C2.01933 11.9309 1.47761 10.6728 1.31563 9.34011C1.3039 9.24226 1.31157 9.14307 1.33819 9.0482C1.36482 8.95332 1.40988 8.86462 1.4708 8.78717C1.53172 8.70971 1.60731 8.64503 1.69325 8.5968C1.77918 8.54857 1.87378 8.51776 1.97163 8.5061L1.97063 8.50511ZM8.26563 3.00011C7.48364 2.99928 6.71051 3.16561 5.99804 3.48795C5.28558 3.81029 4.65025 4.2812 4.13463 4.86911L5.33863 6.07311C5.37368 6.10807 5.39756 6.15266 5.40724 6.20121C5.41693 6.24976 5.41198 6.3001 5.39302 6.34584C5.37406 6.39157 5.34195 6.43065 5.30075 6.45812C5.25956 6.48558 5.21114 6.50019 5.16163 6.50011H1.51563C1.44932 6.50011 1.38573 6.47377 1.33885 6.42688C1.29196 6.38 1.26563 6.31641 1.26563 6.25011V2.60411C1.26554 2.5546 1.28015 2.50617 1.30762 2.46498C1.33508 2.42378 1.37416 2.39167 1.41989 2.37271C1.46563 2.35375 1.51597 2.3488 1.56452 2.35849C1.61307 2.36817 1.65766 2.39205 1.69263 2.42711L3.07263 3.80711C3.97338 2.81157 5.14134 2.09599 6.43736 1.7456C7.73338 1.39521 9.10281 1.42481 10.3825 1.83085C11.6622 2.23689 12.7981 3.00227 13.655 4.03578C14.5119 5.06929 15.0536 6.32737 15.2156 7.66011C15.2392 7.85769 15.1834 8.05656 15.0604 8.21297C14.9373 8.36937 14.7572 8.4705 14.5596 8.49411C14.362 8.51771 14.1632 8.46186 14.0068 8.33883C13.8504 8.21581 13.7492 8.03569 13.7256 7.83811C13.5639 6.50383 12.9191 5.27498 11.9131 4.38362C10.9072 3.49226 9.60967 3.00011 8.26563 3.00011Z" fill="#6E7681"/>
</svg>
