<svg width="21" height="21" viewBox="0 0 21 21" fill="none" xmlns="http://www.w3.org/2000/svg">
<path d="M10.0848 4.79021C9.71867 4.4241 9.12507 4.4241 8.75896 4.79021C8.39285 5.15632 8.39285 5.74992 8.75896 6.11603L10.0848 4.79021ZM14.7344 10.7656L15.3972 11.4285C15.7634 11.0624 15.7634 10.4688 15.3972 10.1027L14.7344 10.7656ZM8.75896 15.4152C8.39285 15.7814 8.39285 16.3749 8.75896 16.741C9.12507 17.1071 9.71867 17.1071 10.0848 16.741L8.75896 15.4152ZM8.75896 6.11603L14.0715 11.4285L15.3972 10.1027L10.0848 4.79021L8.75896 6.11603ZM14.0715 10.1027L8.75896 15.4152L10.0848 16.741L15.3972 11.4285L14.0715 10.1027Z" fill="white"/>
</svg>
