<svg width="21" height="21" viewBox="0 0 21 21" fill="none" xmlns="http://www.w3.org/2000/svg">
<path d="M9.9383 4.34246C9.57219 3.97634 8.97859 3.97634 8.61248 4.34246C8.24636 4.70857 8.24636 5.30217 8.61248 5.66828L9.9383 4.34246ZM14.5879 10.3179L15.2508 10.9808C15.6169 10.6147 15.6169 10.0211 15.2508 9.65496L14.5879 10.3179ZM8.61248 14.9675C8.24636 15.3336 8.24636 15.9271 8.61248 16.2932C8.97859 16.6594 9.57219 16.6594 9.9383 16.2932L8.61248 14.9675ZM8.61248 5.66828L13.925 10.9808L15.2508 9.65496L9.9383 4.34246L8.61248 5.66828ZM13.925 9.65496L8.61248 14.9675L9.9383 16.2932L15.2508 10.9808L13.925 9.65496Z" fill="white"/>
</svg>
