<svg width="17" height="16" viewBox="0 0 17 16" fill="none" xmlns="http://www.w3.org/2000/svg">
<g clip-path="url(#clip0_1_1337)">
<path d="M5.64697 8.83374C5.64697 8.41955 5.98266 8.08374 6.39697 8.08374C6.81112 8.08374 7.14697 8.41953 7.14697 8.83374V10.3298C7.14697 10.744 6.81128 11.0798 6.39697 11.0798C5.98266 11.0798 5.64697 10.744 5.64697 10.3298V8.83374Z" fill="white"/>
<path d="M10.6479 8.83374C10.6479 8.41955 10.3122 8.08374 9.89795 8.08374C9.48346 8.08374 9.14795 8.41973 9.14795 8.83374V10.3298C9.14795 10.744 9.48364 11.0798 9.89795 11.0798C10.3122 11.0798 10.6479 10.744 10.6479 10.3298V8.83374Z" fill="white"/>
<path fill-rule="evenodd" clip-rule="evenodd" d="M5.19146 0.108173C6.20095 0.0176893 7.51421 0.0854605 8.14764 0.998479C8.78107 0.0854605 10.0943 0.0176893 11.1039 0.108173C12.2603 0.224178 13.2341 0.621769 13.7816 1.20582C14.7315 2.24388 14.7757 4.42123 14.3174 5.61998C14.3635 5.82489 14.4074 6.03248 14.4389 6.25215C15.2857 6.47528 16.1493 7.67494 16.1493 8.53281V10.1534C16.1493 10.6033 15.9392 11.0134 15.5691 11.2934C13.4531 12.8661 10.8154 14.0842 8.14764 14.0842C5.47985 14.0842 2.84211 12.8661 0.726194 11.2934C0.356 11.0134 0.145996 10.6033 0.145996 10.1534V8.53281C0.145996 7.67494 1.0096 6.47528 1.85631 6.25215C1.88795 6.03248 1.93186 5.82486 1.97791 5.61998C1.51957 4.42123 1.56377 2.24388 2.51367 1.20582C3.06115 0.621769 4.03498 0.224178 5.19146 0.108173ZM8.14764 12.5839C10.088 12.5839 11.9985 11.7248 13.1487 11.0848V6.73962C11.2928 7.45861 9.15713 7.08787 8.1491 5.42241H8.14618C7.13816 7.08787 5.00247 7.45861 3.14661 6.73962V11.0848C4.29675 11.7248 6.2073 12.5839 8.14764 12.5839ZM5.14703 5.57896C6.78798 5.57896 7.14744 4.28557 7.14744 3.09768C7.14744 1.99417 6.9599 1.58278 5.67839 1.58278C3.46064 1.58278 3.1935 2.33193 3.1935 4.0825C3.1935 5.18601 3.50607 5.57896 5.14703 5.57896ZM11.1483 5.57896C9.5073 5.57896 9.14785 4.28557 9.14785 3.09768C9.14785 1.99417 9.33539 1.58278 10.617 1.58278C12.8346 1.58278 13.1018 2.33193 13.1018 4.0825C13.1018 5.18601 12.7892 5.57896 11.1483 5.57896Z" fill="white"/>
</g>
<defs>
<clipPath id="clip0_1_1337">
<rect width="16.0033" height="15.0049" fill="white" transform="translate(0.145996 0.0783691)"/>
</clipPath>
</defs>
</svg>
