<svg width="25" height="24" viewBox="0 0 25 24" fill="none" xmlns="http://www.w3.org/2000/svg">
<path d="M8.32812 1.75C8.32812 0.784 9.11212 0 10.0781 0H15.5781C16.5441 0 17.3281 0.784 17.3281 1.75V4H22.0781C23.0441 4 23.8281 4.784 23.8281 5.75V20.25C23.8281 20.7141 23.6437 21.1592 23.3156 21.4874C22.9874 21.8156 22.5423 22 22.0781 22H3.57812C3.114 22 2.66888 21.8156 2.34069 21.4874C2.0125 21.1592 1.82813 20.7141 1.82812 20.25V5.75C1.82812 4.784 2.61212 4 3.57812 4H8.32812V1.75ZM3.32812 11.99V20.25C3.32812 20.388 3.44012 20.5 3.57812 20.5H22.0781C22.1444 20.5 22.208 20.4737 22.2549 20.4268C22.3018 20.3799 22.3281 20.3163 22.3281 20.25V11.99C21.5608 12.6431 20.5858 13.0012 19.5781 13H6.07812C5.07049 13.0012 4.09545 12.6431 3.32812 11.99ZM22.3281 8.75V5.75C22.3281 5.6837 22.3018 5.62011 22.2549 5.57322C22.208 5.52634 22.1444 5.5 22.0781 5.5H3.57812C3.51182 5.5 3.44823 5.52634 3.40135 5.57322C3.35446 5.62011 3.32812 5.6837 3.32812 5.75V8.75C3.32812 9.47935 3.61786 10.1788 4.13358 10.6945C4.64931 11.2103 5.34878 11.5 6.07812 11.5H19.5781C20.3075 11.5 21.0069 11.2103 21.5227 10.6945C22.0384 10.1788 22.3281 9.47935 22.3281 8.75ZM15.8281 1.75C15.8281 1.6837 15.8018 1.62011 15.7549 1.57322C15.708 1.52634 15.6444 1.5 15.5781 1.5H10.0781C10.0118 1.5 9.94823 1.52634 9.90135 1.57322C9.85446 1.62011 9.82812 1.6837 9.82812 1.75V4H15.8281V1.75Z" fill="white"/>
</svg>
