<svg width="25" height="24" viewBox="0 0 25 24" fill="none" xmlns="http://www.w3.org/2000/svg">
<path d="M6.82812 9V7.25C6.82812 3.845 9.33113 1 12.8281 1C16.3251 1 18.8281 3.845 18.8281 7.25V9H19.3281C19.9912 9 20.6271 9.26339 21.0959 9.73223C21.5647 10.2011 21.8281 10.837 21.8281 11.5V19.5C21.8281 20.163 21.5647 20.7989 21.0959 21.2678C20.6271 21.7366 19.9912 22 19.3281 22H6.32812C5.66508 22 5.0292 21.7366 4.56036 21.2678C4.09152 20.7989 3.82812 20.163 3.82812 19.5V11.5C3.82812 10.837 4.09152 10.2011 4.56036 9.73223C5.0292 9.26339 5.66508 9 6.32812 9H6.82812ZM5.32812 11.5V19.5C5.32812 19.7652 5.43348 20.0196 5.62102 20.2071C5.80855 20.3946 6.06291 20.5 6.32812 20.5H19.3281C19.5933 20.5 19.8477 20.3946 20.0352 20.2071C20.2228 20.0196 20.3281 19.7652 20.3281 19.5V11.5C20.3281 11.2348 20.2228 10.9804 20.0352 10.7929C19.8477 10.6054 19.5933 10.5 19.3281 10.5H6.32812C6.06291 10.5 5.80855 10.6054 5.62102 10.7929C5.43348 10.9804 5.32812 11.2348 5.32812 11.5ZM8.32812 7.25V9H17.3281V7.25C17.3281 4.58 15.4061 2.5 12.8281 2.5C10.2501 2.5 8.32812 4.58 8.32812 7.25Z" fill="white"/>
</svg>
