<svg width="17" height="17" viewBox="0 0 17 17" fill="none" xmlns="http://www.w3.org/2000/svg">
<path d="M0.841797 0.0541992H16.8483V16.0554H0.841797V0.0541992ZM15.5371 12.2391C15.4204 11.5091 14.9448 10.8957 13.5343 10.3236C13.0434 10.0936 12.4978 9.9336 12.3358 9.56357C12.2751 9.34356 12.2657 9.22355 12.3051 9.09354C12.4051 8.66284 12.9153 8.5335 13.3155 8.65351C13.5756 8.73351 13.8157 8.93353 13.9664 9.25355C14.656 8.80285 14.656 8.80285 15.1369 8.5035C14.9568 8.22347 14.8675 8.1028 14.7461 7.98346C14.3259 7.51342 13.7664 7.2734 12.856 7.29407L12.3858 7.35341C11.9349 7.46342 11.5054 7.70343 11.2453 8.02346C10.485 8.88419 10.7044 10.3843 11.6248 11.0043C12.5352 11.6844 13.8664 11.8337 14.0365 12.4745C14.1965 13.2545 13.4562 13.5045 12.7253 13.4145C12.1844 13.2945 11.8849 13.0238 11.5548 12.5238L10.3343 13.2245C10.4744 13.5445 10.6344 13.6839 10.8745 13.9639C12.035 15.1347 14.9362 15.0746 15.457 13.2945C15.4764 13.2345 15.6171 12.8245 15.5064 12.1944L15.5371 12.2391ZM9.54598 7.40875H8.04671C8.04671 8.70084 8.04071 9.98494 8.04071 11.279C8.04071 12.1004 8.08272 12.8545 7.94867 13.0865C7.72858 13.5459 7.16168 13.4872 6.90425 13.4065C6.64014 13.2759 6.50609 13.0958 6.35069 12.8365C6.30867 12.7665 6.27733 12.7058 6.26599 12.7058L5.04883 13.4559C5.25225 13.8759 5.54903 14.2373 5.93185 14.4673C6.50208 14.8073 7.26839 14.9173 8.07072 14.7373C8.59293 14.5866 9.04311 14.2766 9.27854 13.7966C9.61868 13.1765 9.54665 12.4165 9.54331 11.5657C9.55132 10.1963 9.54331 8.82619 9.54331 7.44608L9.54598 7.40875Z" fill="#8B949E"/>
</svg>
