<svg width="25" height="25" viewBox="0 0 25 25" fill="none" xmlns="http://www.w3.org/2000/svg">
<path d="M12.7344 5C12.9333 5 13.1241 5.07902 13.2647 5.21967C13.4054 5.36032 13.4844 5.55109 13.4844 5.75V11.5H19.2344C19.4333 11.5 19.6241 11.579 19.7647 11.7197C19.9054 11.8603 19.9844 12.0511 19.9844 12.25C19.9844 12.4489 19.9054 12.6397 19.7647 12.7803C19.6241 12.921 19.4333 13 19.2344 13H13.4844V18.75C13.4844 18.9489 13.4054 19.1397 13.2647 19.2803C13.1241 19.421 12.9333 19.5 12.7344 19.5C12.5355 19.5 12.3447 19.421 12.204 19.2803C12.0634 19.1397 11.9844 18.9489 11.9844 18.75V13H6.23438C6.03546 13 5.8447 12.921 5.70404 12.7803C5.56339 12.6397 5.48437 12.4489 5.48438 12.25C5.48438 12.0511 5.56339 11.8603 5.70404 11.7197C5.8447 11.579 6.03546 11.5 6.23438 11.5H11.9844V5.75C11.9844 5.55109 12.0634 5.36032 12.204 5.21967C12.3447 5.07902 12.5355 5 12.7344 5Z" fill="#8B949E"/>
</svg>
