<svg width="25" height="24" viewBox="0 0 25 24" fill="none" xmlns="http://www.w3.org/2000/svg">
<path d="M1.48682 12.0027C1.48682 5.9269 6.41264 1.00122 12.4887 1.00122C18.5647 1.00122 23.4905 5.9269 23.4905 12.0027C23.4905 18.0786 18.5647 23.0042 12.4887 23.0042C6.41264 23.0042 1.48682 18.0786 1.48682 12.0027ZM17.7696 9.28236C17.902 9.14008 17.9741 8.952 17.9707 8.75766C17.9674 8.56331 17.8888 8.37784 17.7515 8.24021C17.6139 8.10295 17.4284 8.02439 17.2341 8.02103C17.0397 8.01767 16.8517 8.08979 16.7094 8.22221L10.7384 14.193L8.26795 11.7227C8.12567 11.5903 7.93759 11.5182 7.74324 11.5215C7.54889 11.5249 7.36341 11.6034 7.22578 11.7407C7.08851 11.8783 7.00994 12.0638 7.00659 12.2581C7.00323 12.4525 7.07535 12.6406 7.20778 12.7828L10.2083 15.7832C10.3489 15.9237 10.5396 16.0026 10.7384 16.0026C10.9372 16.0026 11.1278 15.9237 11.2685 15.7832L17.7696 9.28236Z" fill="#3FB950"/>
</svg>
