<svg width="17" height="16" viewBox="0 0 17 16" fill="none" xmlns="http://www.w3.org/2000/svg">
<path d="M7.99908 3.21967C7.70619 2.92678 7.23131 2.92678 6.93842 3.21967C6.64553 3.51256 6.64553 3.98744 6.93842 4.28033L7.99908 3.21967ZM11.7187 8L12.249 8.53033C12.5419 8.23744 12.5419 7.76256 12.249 7.46967L11.7187 8ZM6.93842 11.7197C6.64553 12.0126 6.64553 12.4874 6.93842 12.7803C7.23131 13.0732 7.70619 13.0732 7.99908 12.7803L6.93842 11.7197ZM6.93842 4.28033L11.1884 8.53033L12.249 7.46967L7.99908 3.21967L6.93842 4.28033ZM11.1884 7.46967L6.93842 11.7197L7.99908 12.7803L12.249 8.53033L11.1884 7.46967Z" fill="white"/>
<path d="M2.46875 8H11.7188H2.46875Z" fill="white"/>
<path d="M2.46875 8H11.7188" stroke="white" stroke-width="1.5" stroke-linecap="round" stroke-dasharray="10 10"/>
</svg>
