<svg width="21" height="21" viewBox="0 0 21 21" fill="none" xmlns="http://www.w3.org/2000/svg">
<path d="M9.97199 4.77294C9.60588 4.40682 9.01228 4.40682 8.64617 4.77294C8.28005 5.13905 8.28005 5.73265 8.64617 6.09876L9.97199 4.77294ZM14.6216 10.7483L15.2845 11.4113C15.6506 11.0451 15.6506 10.4515 15.2845 10.0854L14.6216 10.7483ZM8.64617 15.398C8.28005 15.7641 8.28005 16.3576 8.64617 16.7237C9.01228 17.0898 9.60588 17.0898 9.97199 16.7237L8.64617 15.398ZM8.64617 6.09876L13.9587 11.4113L15.2845 10.0854L9.97199 4.77294L8.64617 6.09876ZM13.9587 10.0854L8.64617 15.398L9.97199 16.7237L15.2845 11.4113L13.9587 10.0854Z" fill="white"/>
</svg>
