<svg width="16" height="17" viewBox="0 0 16 17" fill="none" xmlns="http://www.w3.org/2000/svg">
<path d="M8.00021 16.5C8.48746 16.5002 8.95801 16.3225 9.32351 16.0002C9.68901 15.678 9.9243 15.2334 9.9852 14.75C10.0022 14.613 9.8882 14.5 9.75021 14.5H6.25021C6.11221 14.5 5.99821 14.613 6.01521 14.75C6.07611 15.2334 6.31141 15.678 6.6769 16.0002C7.0424 16.3225 7.51295 16.5002 8.00021 16.5ZM3.00021 5.5C3.00021 4.17392 3.52699 2.90215 4.46467 1.96447C5.40235 1.02678 6.67412 0.5 8.00021 0.5C9.32629 0.5 10.5981 1.02678 11.5357 1.96447C12.4734 2.90215 13.0002 4.17392 13.0002 5.5V8.447C13.0002 8.497 13.0152 8.545 13.0422 8.586L14.7452 11.141C14.897 11.3697 14.984 11.6352 14.9969 11.9093C15.0099 12.1835 14.9483 12.456 14.8187 12.698C14.6892 12.9399 14.4965 13.1423 14.2612 13.2835C14.0259 13.4247 13.7567 13.4995 13.4822 13.5H2.51821C2.24318 13.5007 1.97316 13.4265 1.73706 13.2855C1.50096 13.1444 1.30768 12.9418 1.17791 12.6993C1.04814 12.4568 0.986778 12.1836 1.00039 11.9089C1.01401 11.6343 1.10209 11.3685 1.25521 11.14L2.95821 8.586C2.98538 8.54472 2.99997 8.49642 3.00021 8.447V5.5ZM8.00021 2C7.07195 2 6.18171 2.36875 5.52533 3.02513C4.86895 3.6815 4.50021 4.57174 4.50021 5.5V8.447C4.50021 8.793 4.39821 9.13 4.20621 9.417L2.50321 11.973C2.50118 11.9759 2.50013 11.9794 2.50021 11.983L2.50121 11.989C2.50121 11.991 2.50321 11.993 2.50521 11.995L2.51121 11.999L2.51821 12H13.4822L13.4892 11.999L13.4952 11.995L13.4992 11.989L13.5002 11.982C13.5003 11.9784 13.4992 11.9749 13.4972 11.972L11.7942 9.418C11.6024 9.13088 11.5001 8.7933 11.5002 8.448V5.5C11.5002 4.57174 11.1315 3.6815 10.4751 3.02513C9.8187 2.36875 8.92846 2 8.00021 2Z" fill="white"/>
</svg>
