<svg width="17" height="17" viewBox="0 0 17 17" fill="none" xmlns="http://www.w3.org/2000/svg">
<path d="M2.06407 6.86603C2.03272 6.86603 2.02538 6.8507 2.04072 6.82669L2.20483 6.61666C2.22017 6.59332 2.25886 6.57799 2.29021 6.57799H5.07329C5.10397 6.57799 5.11198 6.60133 5.09663 6.62466L4.96388 6.82669C4.94854 6.8507 4.90918 6.87337 4.88583 6.87337L2.06407 6.86603ZM0.887335 7.58281C0.855982 7.58281 0.847977 7.56747 0.863987 7.54413L1.02742 7.33344C1.04277 7.3101 1.08212 7.29476 1.11348 7.29476H4.6677C4.69905 7.29476 4.71439 7.3181 4.70639 7.34144L4.64435 7.52813C4.63635 7.55947 4.60566 7.57481 4.57431 7.57481L0.887335 7.58281ZM2.77385 8.29958C2.74249 8.29958 2.73449 8.27624 2.7505 8.25291L2.85923 8.05821C2.87458 8.03487 2.90593 8.01154 2.93728 8.01154H4.49626C4.52761 8.01154 4.54295 8.03487 4.54295 8.06621L4.52761 8.25291C4.52761 8.28425 4.49626 8.30758 4.47291 8.30758L2.77385 8.29958ZM10.8649 6.72601C10.3739 6.8507 10.0384 6.94404 9.55542 7.06873C9.43801 7.0994 9.43068 7.1074 9.32861 6.99072C9.21254 6.85803 9.12649 6.77268 8.96305 6.69467C8.47141 6.4533 7.99578 6.52331 7.55217 6.81136C7.02184 7.15408 6.749 7.66082 6.757 8.29158C6.76434 8.91501 7.19328 9.42908 7.809 9.5151C8.33933 9.58511 8.78294 9.39841 9.13449 9.00169C9.20453 8.91501 9.26657 8.82166 9.34462 8.71231H7.84035C7.67691 8.71231 7.63756 8.61096 7.69226 8.47894C7.79365 8.23757 7.98044 7.83218 8.08984 7.62948C8.10654 7.59193 8.1339 7.5601 8.16852 7.53794C8.20315 7.51577 8.24351 7.50425 8.28463 7.50479H11.1217C11.1064 7.71549 11.1064 7.92552 11.075 8.13622C10.9943 8.69092 10.7744 9.21619 10.436 9.66312C9.87495 10.4032 9.14183 10.8633 8.21458 10.9873C7.45077 11.0887 6.74099 10.9406 6.11794 10.4739C5.54091 10.0372 5.21337 9.46042 5.12799 8.74365C5.02659 7.89419 5.27608 7.13074 5.7904 6.46064C6.34408 5.73653 7.07654 5.27646 7.9731 5.11377C8.70556 4.98042 9.40733 5.0671 10.0384 5.49449C10.452 5.76787 10.7475 6.14126 10.943 6.59332C10.9897 6.66333 10.9583 6.70267 10.8649 6.72668M13.4452 11.0347C12.7354 11.0187 12.0883 10.816 11.5427 10.3486C11.0887 9.96615 10.7895 9.43172 10.7008 8.845C10.5607 7.96486 10.8022 7.18541 11.3325 6.49198C11.9016 5.74386 12.5873 5.35447 13.5152 5.19178C14.3104 5.05176 15.0589 5.12844 15.7366 5.58851C16.3523 6.00857 16.7346 6.57799 16.836 7.32543C16.9681 8.37759 16.6645 9.23439 15.9394 9.96716C15.4251 10.4892 14.7934 10.816 14.0682 10.964C13.8581 11.004 13.648 11.0107 13.4452 11.0347ZM15.2997 7.88752C15.2923 7.7855 15.2923 7.70749 15.277 7.62948C15.1369 6.85803 14.4271 6.42263 13.6867 6.59332C12.9616 6.75668 12.4939 7.21675 12.3225 7.94886C12.1824 8.55695 12.4786 9.17238 13.0396 9.42242C13.4685 9.60911 13.8968 9.58511 14.3104 9.37574C14.9261 9.05569 15.261 8.55695 15.3003 7.88685L15.2997 7.88752Z" fill="#8B949E"/>
</svg>
