<svg width="16" height="17" viewBox="0 0 16 17" fill="none" xmlns="http://www.w3.org/2000/svg">
<path d="M1 3.25C1 3.05109 1.07902 2.86032 1.21967 2.71967C1.36032 2.57902 1.55109 2.5 1.75 2.5H14.25C14.4489 2.5 14.6397 2.57902 14.7803 2.71967C14.921 2.86032 15 3.05109 15 3.25C15 3.44891 14.921 3.63968 14.7803 3.78033C14.6397 3.92098 14.4489 4 14.25 4H1.75C1.55109 4 1.36032 3.92098 1.21967 3.78033C1.07902 3.63968 1 3.44891 1 3.25ZM1 8.25C1 8.05109 1.07902 7.86032 1.21967 7.71967C1.36032 7.57902 1.55109 7.5 1.75 7.5H14.25C14.4489 7.5 14.6397 7.57902 14.7803 7.71967C14.921 7.86032 15 8.05109 15 8.25C15 8.44891 14.921 8.63968 14.7803 8.78033C14.6397 8.92098 14.4489 9 14.25 9H1.75C1.55109 9 1.36032 8.92098 1.21967 8.78033C1.07902 8.63968 1 8.44891 1 8.25ZM1.75 12.5H14.25C14.4489 12.5 14.6397 12.579 14.7803 12.7197C14.921 12.8603 15 13.0511 15 13.25C15 13.4489 14.921 13.6397 14.7803 13.7803C14.6397 13.921 14.4489 14 14.25 14H1.75C1.55109 14 1.36032 13.921 1.21967 13.7803C1.07902 13.6397 1 13.4489 1 13.25C1 13.0511 1.07902 12.8603 1.21967 12.7197C1.36032 12.579 1.55109 12.5 1.75 12.5Z" fill="white"/>
</svg>
