<svg width="21" height="21" viewBox="0 0 21 21" fill="none" xmlns="http://www.w3.org/2000/svg">
<path d="M9.12678 4.0656C8.76066 3.69949 8.16706 3.69949 7.80095 4.0656C7.43484 4.43171 7.43484 5.02531 7.80095 5.39143L9.12678 4.0656ZM13.7764 10.041L14.4392 10.7039C14.8054 10.3378 14.8054 9.74421 14.4392 9.3781L13.7764 10.041ZM7.80095 14.6906C7.43484 15.0568 7.43484 15.6503 7.80095 16.0164C8.16706 16.3825 8.76066 16.3825 9.12678 16.0164L7.80095 14.6906ZM7.80095 5.39143L13.1135 10.7039L14.4392 9.3781L9.12678 4.0656L7.80095 5.39143ZM13.1135 9.3781L7.80095 14.6906L9.12678 16.0164L14.4392 10.7039L13.1135 9.3781Z" fill="white"/>
</svg>
