<svg width="17" height="16" viewBox="0 0 17 16" fill="none" xmlns="http://www.w3.org/2000/svg">
<path d="M12.905 5.22024C12.9747 5.28981 13.03 5.37242 13.0677 5.46337C13.1054 5.55431 13.1248 5.65179 13.1248 5.75024C13.1248 5.84869 13.1054 5.94618 13.0677 6.03712C13.03 6.12806 12.9747 6.21068 12.905 6.28024L8.65502 10.5302C8.58546 10.5999 8.50284 10.6552 8.4119 10.6929C8.32096 10.7306 8.22347 10.75 8.12502 10.75C8.02657 10.75 7.92909 10.7306 7.83815 10.6929C7.7472 10.6552 7.66459 10.5999 7.59502 10.5302L3.34502 6.28024C3.20446 6.13968 3.12549 5.94903 3.12549 5.75024C3.12549 5.65181 3.14488 5.55435 3.18254 5.46341C3.22021 5.37247 3.27542 5.28984 3.34502 5.22024C3.41462 5.15064 3.49725 5.09543 3.58819 5.05776C3.67913 5.0201 3.77659 5.00071 3.87502 5.00071C4.07381 5.00071 4.26446 5.07968 4.40502 5.22024L8.12502 8.93924L11.845 5.22024C11.9146 5.15058 11.9972 5.09531 12.0881 5.0576C12.1791 5.0199 12.2766 5.00049 12.375 5.00049C12.4735 5.00049 12.571 5.0199 12.6619 5.0576C12.7528 5.09531 12.8355 5.15058 12.905 5.22024Z" fill="white"/>
</svg>
