<svg width="21" height="21" viewBox="0 0 21 21" fill="none" xmlns="http://www.w3.org/2000/svg">
<path d="M9.74396 4.18083C9.37785 3.81472 8.78425 3.81472 8.41814 4.18083C8.05203 4.54695 8.05203 5.14055 8.41814 5.50666L9.74396 4.18083ZM14.3936 10.1562L15.0564 10.8192C15.4226 10.453 15.4226 9.85945 15.0564 9.49333L14.3936 10.1562ZM8.41814 14.8059C8.05203 15.172 8.05203 15.7655 8.41814 16.1316C8.78425 16.4977 9.37785 16.4977 9.74396 16.1316L8.41814 14.8059ZM8.41814 5.50666L13.7307 10.8192L15.0564 9.49333L9.74396 4.18083L8.41814 5.50666ZM13.7307 9.49333L8.41814 14.8059L9.74396 16.1316L15.0564 10.8192L13.7307 9.49333Z" fill="white"/>
</svg>
