<svg width="21" height="21" viewBox="0 0 21 21" fill="none" xmlns="http://www.w3.org/2000/svg">
<path d="M9.62238 4.06877C9.25627 3.70266 8.66267 3.70266 8.29656 4.06877C7.93044 4.43489 7.93044 5.02849 8.29656 5.3946L9.62238 4.06877ZM14.272 10.0442L14.9348 10.7071C15.301 10.341 15.301 9.74739 14.9348 9.38127L14.272 10.0442ZM8.29656 14.6938C7.93044 15.0599 7.93044 15.6534 8.29656 16.0196C8.66267 16.3857 9.25627 16.3857 9.62238 16.0196L8.29656 14.6938ZM8.29656 5.3946L13.6091 10.7071L14.9348 9.38127L9.62238 4.06877L8.29656 5.3946ZM13.6091 9.38127L8.29656 14.6938L9.62238 16.0196L14.9348 10.7071L13.6091 9.38127Z" fill="white"/>
</svg>
