<svg width="21" height="20" viewBox="0 0 21 20" fill="none" xmlns="http://www.w3.org/2000/svg">
<path d="M9.92853 4.02458C9.56242 3.65847 8.96882 3.65847 8.60271 4.02458C8.2366 4.3907 8.2366 4.9843 8.60271 5.35041L9.92853 4.02458ZM14.5781 10L15.241 10.6629C15.6071 10.2968 15.6071 9.7032 15.241 9.33708L14.5781 10ZM8.60271 14.6496C8.2366 15.0157 8.2366 15.6092 8.60271 15.9754C8.96882 16.3415 9.56242 16.3415 9.92853 15.9754L8.60271 14.6496ZM8.60271 5.35041L13.9152 10.6629L15.241 9.33708L9.92853 4.02458L8.60271 5.35041ZM13.9152 9.33708L8.60271 14.6496L9.92853 15.9754L15.241 10.6629L13.9152 9.33708Z" fill="white"/>
<path d="M3.01562 10H14.5781H3.01562Z" fill="white"/>
<path d="M3.01562 10H14.5781" stroke="white" stroke-width="1.875" stroke-linecap="round" stroke-dasharray="12.5 12.5"/>
</svg>
