<svg width="21" height="21" viewBox="0 0 21 21" fill="none" xmlns="http://www.w3.org/2000/svg">
<path d="M9.41291 4.52458C9.0468 4.15847 8.4532 4.15847 8.08708 4.52458C7.72097 4.8907 7.72097 5.4843 8.08708 5.85041L9.41291 4.52458ZM14.0625 10.5L14.7254 11.1629C15.0915 10.7968 15.0915 10.2032 14.7254 9.83708L14.0625 10.5ZM8.08708 15.1496C7.72097 15.5157 7.72097 16.1092 8.08708 16.4754C8.4532 16.8415 9.0468 16.8415 9.41291 16.4754L8.08708 15.1496ZM8.08708 5.85041L13.3996 11.1629L14.7254 9.83708L9.41291 4.52458L8.08708 5.85041ZM13.3996 9.83708L8.08708 15.1496L9.41291 16.4754L14.7254 11.1629L13.3996 9.83708Z" fill="#0D1117"/>
</svg>
