<svg width="21" height="20" viewBox="0 0 21 20" fill="none" xmlns="http://www.w3.org/2000/svg">
<path d="M9.13166 4.02458C8.76555 3.65847 8.17195 3.65847 7.80583 4.02458C7.43972 4.3907 7.43972 4.9843 7.80583 5.35041L9.13166 4.02458ZM13.7812 10L14.4441 10.6629C14.8102 10.2968 14.8102 9.7032 14.4441 9.33708L13.7812 10ZM7.80583 14.6496C7.43972 15.0157 7.43972 15.6092 7.80583 15.9754C8.17195 16.3415 8.76555 16.3415 9.13166 15.9754L7.80583 14.6496ZM7.80583 5.35041L13.1184 10.6629L14.4441 9.33708L9.13166 4.02458L7.80583 5.35041ZM13.1184 9.33708L7.80583 14.6496L9.13166 15.9754L14.4441 10.6629L13.1184 9.33708Z" fill="white"/>
</svg>
