<svg width="21" height="21" viewBox="0 0 21 21" fill="none" xmlns="http://www.w3.org/2000/svg">
<path d="M9.2259 4.32976C8.85979 3.96365 8.26619 3.96365 7.90007 4.32976C7.53396 4.69587 7.53396 5.28947 7.90007 5.65559L9.2259 4.32976ZM13.8755 10.3052L14.5384 10.9681C14.9045 10.602 14.9045 10.0084 14.5384 9.64226L13.8755 10.3052ZM7.90007 14.9548C7.53396 15.3209 7.53396 15.9144 7.90007 16.2805C8.26619 16.6467 8.85979 16.6467 9.2259 16.2805L7.90007 14.9548ZM7.90007 5.65559L13.2126 10.9681L14.5384 9.64226L9.2259 4.32976L7.90007 5.65559ZM13.2126 9.64226L7.90007 14.9548L9.2259 16.2805L14.5384 10.9681L13.2126 9.64226Z" fill="white"/>
</svg>
