<svg width="17" height="17" viewBox="0 0 17 17" fill="none" xmlns="http://www.w3.org/2000/svg">
<path d="M2.58344 8.11731C2.68135 8.10558 2.78062 8.11325 2.87556 8.13989C2.97051 8.16653 3.05927 8.21162 3.13678 8.27257C3.21429 8.33353 3.27902 8.40915 3.32728 8.49514C3.37555 8.58112 3.40639 8.67576 3.41805 8.77367C3.54558 9.82823 3.97566 10.8234 4.65638 11.6389C5.3371 12.4545 6.23937 13.0557 7.25427 13.3699C8.26917 13.684 9.35334 13.6978 10.3759 13.4096C11.3985 13.1213 12.3157 12.5433 13.017 11.7453L11.8121 10.5406C11.777 10.5056 11.7531 10.461 11.7435 10.4125C11.7338 10.3639 11.7387 10.3135 11.7577 10.2677C11.7767 10.222 11.8088 10.1829 11.85 10.1554C11.8912 10.1279 11.9397 10.1133 11.9893 10.1134H15.6379C15.7042 10.1134 15.7679 10.1397 15.8148 10.1867C15.8617 10.2336 15.8881 10.2972 15.8881 10.3635V14.0115C15.8882 14.0611 15.8735 14.1095 15.8461 14.1507C15.8186 14.1919 15.7795 14.2241 15.7337 14.243C15.6879 14.262 15.6376 14.267 15.589 14.2573C15.5404 14.2476 15.4958 14.2237 15.4608 14.1886L14.0798 12.8079C13.1784 13.8039 12.0096 14.5199 10.7126 14.8705C9.41564 15.2211 8.04522 15.1915 6.76462 14.7852C5.48402 14.3789 4.34723 13.6131 3.4897 12.5791C2.63218 11.545 2.09007 10.2862 1.92797 8.95276C1.91623 8.85487 1.9239 8.75562 1.95055 8.6607C1.97719 8.56577 2.02229 8.47702 2.08325 8.39953C2.14422 8.32203 2.21986 8.25731 2.30586 8.20905C2.39186 8.1608 2.48652 8.12997 2.58444 8.11831L2.58344 8.11731ZM8.883 2.60932C8.10045 2.60849 7.32676 2.77491 6.61378 3.09743C5.9008 3.41994 5.26501 3.89111 4.74901 4.47933L5.95388 5.68399C5.98896 5.71897 6.01286 5.76358 6.02255 5.81216C6.03224 5.86074 6.02729 5.91111 6.00831 5.95687C5.98934 6.00263 5.95721 6.04173 5.91598 6.06921C5.87476 6.09669 5.8263 6.11131 5.77675 6.11122H2.12811C2.06176 6.11122 1.99812 6.08487 1.95121 6.03796C1.90429 5.99105 1.87793 5.92742 1.87793 5.86108V2.2131C1.87784 2.16357 1.89247 2.11512 1.91995 2.0739C1.94743 2.03268 1.98654 2.00055 2.03231 1.98158C2.07808 1.96262 2.12845 1.95766 2.17704 1.96735C2.22563 1.97704 2.27025 2.00093 2.30524 2.03601L3.68624 3.41676C4.58764 2.42068 5.75645 1.70471 7.05341 1.35413C8.35037 1.00355 9.72079 1.03316 11.0014 1.43943C12.282 1.84569 13.4188 2.61148 14.2763 3.64555C15.1338 4.67963 15.6759 5.93839 15.838 7.27185C15.8617 7.46954 15.8058 7.66852 15.6827 7.82501C15.5595 7.9815 15.3793 8.08269 15.1816 8.1063C14.9838 8.12992 14.7848 8.07404 14.6283 7.95095C14.4718 7.82786 14.3706 7.64764 14.347 7.44995C14.1851 6.11495 13.5399 4.88542 12.5332 3.99358C11.5265 3.10174 10.228 2.60932 8.883 2.60932Z" fill="white"/>
</svg>
