<svg width="17" height="16" viewBox="0 0 17 16" fill="none" xmlns="http://www.w3.org/2000/svg">
<path d="M13.155 5.22024C13.2247 5.28981 13.28 5.37242 13.3177 5.46337C13.3554 5.55431 13.3748 5.65179 13.3748 5.75024C13.3748 5.84869 13.3554 5.94618 13.3177 6.03712C13.28 6.12806 13.2247 6.21068 13.155 6.28024L8.90502 10.5302C8.83546 10.5999 8.75284 10.6552 8.6619 10.6929C8.57096 10.7306 8.47347 10.75 8.37502 10.75C8.27657 10.75 8.17909 10.7306 8.08815 10.6929C7.9972 10.6552 7.91459 10.5999 7.84502 10.5302L3.59502 6.28024C3.45446 6.13968 3.37549 5.94903 3.37549 5.75024C3.37549 5.65181 3.39488 5.55435 3.43254 5.46341C3.47021 5.37247 3.52542 5.28984 3.59502 5.22024C3.66462 5.15064 3.74725 5.09543 3.83819 5.05776C3.92913 5.0201 4.02659 5.00071 4.12502 5.00071C4.32381 5.00071 4.51446 5.07968 4.65502 5.22024L8.37502 8.93924L12.095 5.22024C12.1646 5.15058 12.2472 5.09531 12.3381 5.0576C12.4291 5.0199 12.5266 5.00049 12.625 5.00049C12.7235 5.00049 12.821 5.0199 12.9119 5.0576C13.0028 5.09531 13.0855 5.15058 13.155 5.22024Z" fill="white"/>
</svg>
