<svg width="17" height="17" viewBox="0 0 17 17" fill="none" xmlns="http://www.w3.org/2000/svg">
<path d="M4.92188 4.5C4.92188 3.43913 5.3433 2.42172 6.09345 1.67157C6.84359 0.921427 7.86101 0.5 8.92188 0.5C9.98274 0.5 11.0002 0.921427 11.7503 1.67157C12.5004 2.42172 12.9219 3.43913 12.9219 4.5V6.5H13.1719C14.1379 6.5 14.9219 7.284 14.9219 8.25V13.75C14.9219 14.2141 14.7375 14.6592 14.4093 14.9874C14.0811 15.3156 13.636 15.5 13.1719 15.5H4.67188C4.20775 15.5 3.76263 15.3156 3.43444 14.9874C3.10625 14.6592 2.92188 14.2141 2.92188 13.75V8.25C2.92188 7.284 3.70587 6.5 4.67188 6.5H4.92188V4.5ZM13.1719 8H4.67188C4.60557 8 4.54198 8.02634 4.4951 8.07322C4.44821 8.12011 4.42188 8.1837 4.42188 8.25V13.75C4.42188 13.888 4.53387 14 4.67188 14H13.1719C13.2382 14 13.3018 13.9737 13.3487 13.9268C13.3955 13.8799 13.4219 13.8163 13.4219 13.75V8.25C13.4219 8.1837 13.3955 8.12011 13.3487 8.07322C13.3018 8.02634 13.2382 8 13.1719 8ZM11.4219 6.5V4.5C11.4219 3.83696 11.1585 3.20107 10.6896 2.73223C10.2208 2.26339 9.58492 2 8.92188 2C8.25883 2 7.62295 2.26339 7.15411 2.73223C6.68527 3.20107 6.42188 3.83696 6.42188 4.5V6.5H11.4219Z" fill="#6E7681"/>
</svg>
