<svg width="17" height="17" viewBox="0 0 17 17" fill="none" xmlns="http://www.w3.org/2000/svg">
<path d="M9.99786 0.192258L10.5979 0.325583L11.0845 0.498905L11.4778 0.698892L11.7778 0.912211L12.0045 1.13886L12.1712 1.36552L12.2778 1.5855L12.3445 1.78549L12.3712 1.95881L12.3845 2.09213L12.3778 2.1788V5.73856L12.3445 6.15854L12.2578 6.52518L12.1178 6.83183L11.9445 7.08514L11.7445 7.2918L11.5245 7.45845L11.2912 7.58511L11.0578 7.67844L10.8378 7.7451L10.6379 7.79176L10.4645 7.81843L10.3245 7.83176H6.34459L5.88459 7.86509L5.49126 7.95842L5.15794 8.10508L4.88461 8.28507L4.66461 8.49839L4.48461 8.7317L4.35128 8.97169L4.25128 9.21834L4.18462 9.45166L4.13795 9.66498L4.11129 9.84496L4.09795 9.98496V12.0248H2.61131L2.47131 12.0048L2.28465 11.9582L2.07132 11.8782L1.83799 11.7582L1.59799 11.5849L1.35799 11.3449L1.12466 11.0382L0.911334 10.6449L0.72467 10.1583L0.584673 9.57165L0.491341 8.87169L0.458008 8.05175L0.498007 7.23847L0.604672 6.54518L0.76467 5.96522L0.978 5.49191L1.218 5.11194L1.48466 4.81862L1.76465 4.59864L2.04465 4.43865L2.31131 4.33199L2.55131 4.26533L2.76464 4.232L2.92464 4.22533H3.0313L3.0713 4.232H8.51122V3.6787H4.61794L4.61128 1.84548L4.59794 1.59883L4.63128 1.37218L4.70461 1.16553L4.81794 0.978873L4.98461 0.805551L5.19127 0.652228L5.4446 0.518903L5.73793 0.398911L6.07792 0.298918L6.46458 0.218923L6.89124 0.15226L7.36457 0.112263L7.87789 0.0855981L8.43789 0.0722656L9.28454 0.105597L9.99786 0.192258ZM5.79793 1.51217L5.6446 1.73216L5.59126 2.00547L5.6446 2.27879L5.79793 2.50544L6.01792 2.6521L6.29125 2.71209L6.56458 2.6521L6.78458 2.50544L6.93791 2.27879L6.99124 2.00547L6.93791 1.73216L6.78458 1.51217L6.56458 1.36552L6.29125 1.30552L6.01792 1.36552L5.79793 1.51217ZM14.5245 4.14533L14.7111 4.18533L14.9245 4.26533L15.1578 4.38532L15.3978 4.56531L15.6378 4.79863L15.8711 5.11194L16.0844 5.50525L16.2711 5.99188L16.4111 6.57851L16.5044 7.2718L16.5378 8.09175L16.4978 8.91169L16.3911 9.60498L16.2311 10.1783L16.0178 10.6516L15.7778 11.0316L15.5111 11.3315L15.2311 11.5515L14.9511 11.7115L14.6845 11.8182L14.4445 11.8782L14.2311 11.9115L14.0711 11.9248L13.9645 11.9182H8.48455V12.4648H12.3778L12.3845 14.3047L12.3978 14.5447L12.3645 14.7713L12.2912 14.978L12.1778 15.1713L12.0112 15.3379L11.8045 15.4979L11.5512 15.6313L11.2578 15.7446L10.9178 15.8446L10.5312 15.9312L10.1045 15.9912L9.6312 16.0379L9.11788 16.0646L8.55788 16.0712L7.71123 16.0446L6.99791 15.9512L6.39792 15.8179L5.91126 15.6513L5.51793 15.4513L5.21794 15.2313L4.99127 15.0046L4.82461 14.778L4.71794 14.558L4.65128 14.358L4.62461 14.1913L4.61128 14.058L4.61794 13.9714V10.4116L4.65128 9.98496L4.73794 9.62498L4.87794 9.31833L5.05127 9.06502L5.25127 8.8517L5.47126 8.69171L5.70459 8.55838L5.93792 8.46505L6.15792 8.39839L6.35792 8.35839L6.53125 8.33173L6.67125 8.3184L6.75791 8.31173H10.6512L11.1112 8.2784L11.5045 8.18507L11.8378 8.04508L12.1112 7.85843L12.3312 7.64511L12.5112 7.41179L12.6445 7.1718L12.7445 6.93182L12.8112 6.6985L12.8578 6.48518L12.8845 6.29853L12.8978 6.15854V4.11867H14.2911L14.3845 4.12534L14.5245 4.14533ZM10.2112 13.6447L10.0579 13.8647L10.0045 14.138L10.0579 14.4113L10.2112 14.6313L10.4312 14.7846L10.7045 14.838L10.9778 14.7846L11.1978 14.6313L11.3512 14.4113L11.4045 14.138L11.3512 13.8647L11.1978 13.6447L10.9778 13.4914L10.7045 13.4381L10.4312 13.4914L10.2112 13.6447Z" fill="white"/>
</svg>
