<svg width="21" height="21" viewBox="0 0 21 21" fill="none" xmlns="http://www.w3.org/2000/svg">
<path d="M9.74689 4.33757C9.38078 3.97146 8.78718 3.97146 8.42107 4.33757C8.05496 4.70369 8.05496 5.29729 8.42107 5.6634L9.74689 4.33757ZM14.3965 10.313L15.0594 10.9759C15.4255 10.6098 15.4255 10.0162 15.0594 9.65007L14.3965 10.313ZM8.42107 14.9626C8.05496 15.3287 8.05496 15.9222 8.42107 16.2884C8.78718 16.6545 9.38078 16.6545 9.74689 16.2884L8.42107 14.9626ZM8.42107 5.6634L13.7336 10.9759L15.0594 9.65007L9.74689 4.33757L8.42107 5.6634ZM13.7336 9.65007L8.42107 14.9626L9.74689 16.2884L15.0594 10.9759L13.7336 9.65007Z" fill="white"/>
</svg>
