<svg width="21" height="21" viewBox="0 0 21 21" fill="none" xmlns="http://www.w3.org/2000/svg">
<path d="M9.63166 4.52458C9.26555 4.15847 8.67195 4.15847 8.30583 4.52458C7.93972 4.8907 7.93972 5.4843 8.30583 5.85041L9.63166 4.52458ZM14.2812 10.5L14.9441 11.1629C15.3102 10.7968 15.3102 10.2032 14.9441 9.83708L14.2812 10.5ZM8.30583 15.1496C7.93972 15.5157 7.93972 16.1092 8.30583 16.4754C8.67195 16.8415 9.26555 16.8415 9.63166 16.4754L8.30583 15.1496ZM8.30583 5.85041L13.6184 11.1629L14.9441 9.83708L9.63166 4.52458L8.30583 5.85041ZM13.6184 9.83708L8.30583 15.1496L9.63166 16.4754L14.9441 11.1629L13.6184 9.83708Z" fill="white"/>
</svg>
