<svg width="25" height="24" viewBox="0 0 25 24" fill="none" xmlns="http://www.w3.org/2000/svg">
<path d="M1.48486 11.9995C1.48486 5.92424 6.4105 0.999023 12.4863 0.999023C18.5621 0.999023 23.4877 5.92424 23.4877 11.9995C23.4877 18.0748 18.5621 23 12.4863 23C6.4105 23 1.48486 18.0748 1.48486 11.9995ZM17.767 9.27938C17.8994 9.13711 17.9715 8.94905 17.9682 8.75473C17.9648 8.5604 17.8862 8.37495 17.749 8.23734C17.6114 8.10009 17.4259 8.02153 17.2315 8.01817C17.0372 8.01481 16.8491 8.08692 16.7068 8.21934L10.7361 14.1896L8.26574 11.7195C8.12346 11.5871 7.93539 11.515 7.74104 11.5183C7.5467 11.5217 7.36123 11.6002 7.22361 11.7375C7.08635 11.8751 7.00778 12.0606 7.00442 12.2549C7.00107 12.4492 7.07318 12.6373 7.20561 12.7795L10.206 15.7797C10.3466 15.9201 10.5373 15.999 10.7361 15.999C10.9348 15.999 11.1255 15.9201 11.2661 15.7797L17.767 9.27938Z" fill="#3FB950"/>
</svg>
