<svg width="84" height="31" viewBox="0 0 84 31" fill="none" xmlns="http://www.w3.org/2000/svg">
<path d="M16.4453 14.2866V25.0013C16.4453 25.0759 16.4267 25.2066 16.3333 25.2439C16.3333 25.2439 14 26.9053 10.1547 26.9053C5.50667 26.9053 0 25.4493 0 15.8546C0 6.25993 4.816 4.28127 9.52 4.29993C13.5893 4.29993 15.232 5.2146 15.4933 5.3826C15.568 5.47593 15.6053 5.5506 15.6053 5.64394L14.8213 8.9666C14.8213 9.1346 14.6533 9.33994 14.448 9.28394C13.776 9.0786 12.768 8.66794 10.3973 8.66794C7.65333 8.66794 4.704 9.45193 4.704 15.6306C4.704 21.8093 7.504 22.5373 9.52 22.5373C11.2373 22.5373 11.8533 22.3319 11.8533 22.3319V18.0386H9.10933C8.904 18.0386 8.75467 17.8893 8.75467 17.7213V14.2866C8.75467 14.1186 8.904 13.9693 9.10933 13.9693H16.0907C16.296 13.9693 16.4453 14.1186 16.4453 14.2866ZM83.3653 18.6359C83.3653 25.0386 81.2933 26.8679 77.672 26.8679C74.6107 26.8679 72.968 25.3186 72.968 25.3186C72.968 25.3186 72.8933 26.1773 72.8 26.2893C72.744 26.4013 72.6507 26.4386 72.5387 26.4386H69.776C69.5893 26.4386 69.4213 26.2893 69.4213 26.1213L69.4587 5.3826C69.4587 5.2146 69.608 5.06527 69.776 5.06527H73.752C73.92 5.06527 74.0693 5.2146 74.0693 5.3826V12.4199C74.0693 12.4199 75.6 11.4306 77.84 11.4306L77.8213 11.3933C80.0613 11.3933 83.3653 12.2333 83.3653 18.6359ZM51.6693 5.1026C51.8373 5.1026 51.9867 5.25193 51.9867 5.41993V26.1586C51.9867 26.3266 51.8373 26.4759 51.6693 26.4759H47.6933C47.5253 26.4759 47.376 26.3266 47.376 26.1586L47.4133 17.2919H41.2347V26.1586C41.2347 26.3266 41.0853 26.4759 40.9173 26.4759H36.9413C36.792 26.4759 36.624 26.3266 36.624 26.1586V5.41993C36.624 5.25193 36.7733 5.1026 36.9413 5.1026H40.9173C41.0853 5.1026 41.2347 5.25193 41.2347 5.41993V13.0546H47.4133V5.41993C47.4133 5.25193 47.5627 5.1026 47.7307 5.1026H51.6693ZM67.088 11.8973C67.2933 11.8973 67.4427 12.0466 67.4427 12.2146L67.4053 26.1586C67.4053 26.3266 67.2933 26.4759 67.088 26.4759H64.5867C64.456 26.4759 64.3253 26.4013 64.288 26.3079C64.232 26.1959 64.1387 25.4679 64.1387 25.4679C64.1387 25.4679 62.0293 26.9053 59.4347 26.9053C56.28 26.9053 53.984 25.8786 53.984 21.7719V12.2333C53.984 12.0653 54.1333 11.9159 54.3013 11.9159H58.296C58.464 11.9159 58.6133 12.0653 58.6133 12.2333V21.0999C58.6133 22.4999 59.024 23.1346 60.424 23.1346C61.824 23.1346 62.8507 22.4066 62.8507 22.4066V12.2519C62.8507 12.0466 62.9627 11.8973 63.168 11.8973H67.088ZM34.5968 23.0431H34.6061C34.6823 23.0589 34.7505 23.1011 34.7986 23.1622C34.8468 23.2233 34.8718 23.2995 34.8693 23.3773V26.1773C34.8693 26.3079 34.8133 26.4386 34.7013 26.4759C34.5147 26.5693 33.32 26.8866 32.3307 26.8866C30.1653 26.8866 26.992 26.4199 26.992 21.8653V15.7426H24.92C24.752 15.7426 24.6027 15.5933 24.6027 15.3879V12.8493C24.6027 12.6999 24.696 12.5693 24.8453 12.5319C24.976 12.5133 27.0107 12.0093 27.0107 12.0093V7.9586C27.0107 7.80927 27.104 7.71593 27.272 7.71593H31.304C31.472 7.71593 31.5653 7.80927 31.5653 7.9586V11.8973H34.5333C34.6827 11.8973 34.832 12.0466 34.832 12.2146V15.3879C34.832 15.5933 34.7013 15.7426 34.5333 15.7426H31.5653V21.5871C31.5653 22.4645 32.0693 23.1365 33.5253 23.1365C33.9864 23.1365 34.4232 23.045 34.5968 23.0431ZM22.848 11.8786C23.016 11.8786 23.1653 12.0279 23.1653 12.1959V25.9533C23.1653 26.2893 23.072 26.4573 22.6987 26.4573H19.1147C18.7973 26.4573 18.5547 26.3266 18.5547 25.9533V12.2519C18.5547 12.0466 18.704 11.8786 18.872 11.8786H22.848ZM78.8293 18.9346C78.8293 15.5559 77.4667 15.1079 76.0293 15.2573C74.9093 15.3319 74.0133 15.8919 74.0133 15.8919V22.4626C74.0133 22.4626 74.928 23.0973 76.2907 23.1346C78.2133 23.1906 78.8293 22.4999 78.8293 18.9346ZM20.888 5.56927C22.288 5.56927 23.4267 6.70794 23.4267 8.14527C23.4267 9.5826 22.288 10.7213 20.888 10.7213C19.4507 10.7213 18.312 9.5826 18.312 8.14527C18.312 6.70794 19.4507 5.56927 20.888 5.56927ZM34.5893 23.0226V23.0245L34.608 23.0431H34.6061L34.5968 23.0413V23.0431C34.58 23.0413 34.5688 23.0226 34.552 23.0226H34.5893Z" fill="white"/>
</svg>
