<svg width="170" height="44" viewBox="0 0 170 44" fill="none" xmlns="http://www.w3.org/2000/svg">
<g clip-path="url(#clip0_1_1537)">
<path d="M107.834 15.5023C106.869 15.7588 105.999 15.9137 104.918 16.0291V16.3577C106.134 16.3577 106.289 16.4937 106.289 17.4988V20.8776C105.574 19.7188 105.014 19.3719 103.972 19.3719C101.906 19.3719 100.46 21.3216 100.46 24.1033C100.46 26.885 101.926 28.8364 104.03 28.8364C105.131 28.8364 105.884 28.3353 106.424 27.2536C106.501 27.9867 106.502 28.0638 106.695 28.7981C107.486 28.5467 107.814 28.469 108.954 28.3341L109.242 28.2947V27.9667C107.949 27.9284 107.834 27.8313 107.834 26.6536V15.5023ZM55.7431 15.6428C55.1343 15.7136 54.5217 15.7463 53.9088 15.7406C53.3677 15.7406 53.0785 15.7217 52.3265 15.6634V16.1446C53.6579 16.2223 53.9277 16.4154 53.9277 17.3045V17.4211L53.5219 26.9044C53.4837 27.9478 53.2917 28.1015 51.9403 28.1987V28.6627C52.9448 28.585 53.3288 28.5661 53.8694 28.5661C54.4105 28.5661 54.7956 28.585 55.7813 28.6627V28.1987C54.4294 28.1015 54.1785 27.9278 54.1785 27.0781V26.9044L54.5648 16.88L57.7305 25.437L57.9625 26.1124L58.2339 26.865L58.5036 27.6193L58.7167 28.2381H59.007L59.2179 27.6004L59.4687 26.865L59.7384 26.1518L59.9704 25.5124L63.1567 16.8988L63.3304 26.9044V27.001C63.3304 27.909 63.0412 28.121 61.7276 28.1987V28.6627C62.9441 28.5467 63.407 28.5084 64.1412 28.5084C64.8738 28.5084 65.3378 28.5467 66.5543 28.6627V28.1987C65.1641 28.1015 64.9898 27.9478 64.9709 26.9044L64.7595 17.4211V17.2857C64.7595 16.416 65.0486 16.2228 66.3618 16.1446V15.6634C65.6281 15.7217 65.3189 15.7406 64.8367 15.7406C64.2572 15.7406 63.8527 15.7206 62.9835 15.6428L59.335 25.4176L55.7431 15.6428ZM130.843 15.72V16.2046C132.232 16.2811 132.426 16.4348 132.426 17.4783V26.8456C132.426 27.889 132.272 28.0233 130.843 28.1398V28.6038H135.728C137.156 28.6038 137.928 28.4301 138.739 27.9284C139.705 27.3101 140.341 26.1307 140.341 24.9136C140.341 23.8713 139.897 22.9256 139.144 22.3462C138.738 22.0376 138.313 21.8628 137.619 21.7273C139.009 21.2062 139.744 20.2211 139.744 18.8697C139.744 17.864 139.318 16.9748 138.584 16.4154C137.928 15.9326 137.175 15.7194 135.92 15.7194L130.843 15.72ZM134.048 16.32H135.688C137.311 16.32 138.024 17.1108 138.024 18.9079C138.024 19.7959 137.813 20.4336 137.388 20.9359C136.964 21.4188 136.442 21.5736 135.36 21.5736H134.048V16.32ZM89.6455 19.0817L89.1232 20.0662C88.5055 19.4674 87.9843 19.2548 87.1546 19.2548C84.8764 19.2548 83.3313 21.2262 83.3313 24.1033C83.3313 26.9233 84.857 28.8175 87.0964 28.8175C88.8346 28.8175 89.934 27.6958 90.1849 25.629H89.3929C89.1615 27.329 88.4466 28.1798 87.2489 28.1798C85.7632 28.1798 85.0107 26.8084 85.0107 24.1033C85.0107 21.3411 85.8615 19.7776 87.3089 19.7776C88.4872 19.7776 89.2003 20.5879 89.5472 22.2679H89.9735V19.0817H89.6455ZM124.238 19.1399L123.91 19.9308C123.254 19.4874 122.695 19.3137 121.942 19.3137C120.242 19.3137 119.046 20.3565 119.046 21.8828C119.046 23.0027 119.491 23.5433 120.899 24.201L121.787 24.605L122.52 24.9336C123.466 25.3587 123.834 25.8027 123.834 26.4593C123.834 27.445 122.984 28.1987 121.845 28.1987C120.494 28.1987 119.682 27.349 119.334 25.5913L118.911 25.6101V28.8364H119.258L119.72 27.9667C120.454 28.5461 121.149 28.7781 122.038 28.7781C123.853 28.7781 125.147 27.6204 125.147 25.997C125.147 24.8576 124.624 24.2387 123.158 23.6016L122.347 23.2542C120.589 22.4816 120.301 22.2313 120.301 21.4582C120.301 20.5502 121.092 19.8548 122.115 19.8548C123.331 19.8548 123.968 20.5891 124.142 22.1336H124.587V19.1394L124.238 19.1399ZM152.777 19.1399C152.007 19.4108 151.349 19.5645 150.228 19.7194V20.0474C150.325 20.0474 150.423 20.0662 150.481 20.0662C151.446 20.0662 151.561 20.1834 151.58 20.9748V27.233C151.58 28.0633 151.389 28.2181 150.211 28.2758V28.6627C151.215 28.5655 151.619 28.5472 152.294 28.5472C152.99 28.5472 153.377 28.5655 154.381 28.6627V28.2758C153.377 28.2375 153.126 28.0438 153.126 27.2724V22.5959C153.126 21.0125 153.82 20.1834 155.134 20.1834C156.368 20.1834 156.87 20.8588 156.87 22.5393V27.2724C156.87 28.0438 156.619 28.2375 155.577 28.2758V28.6627C156.58 28.5655 156.966 28.5472 157.681 28.5472C158.375 28.5472 158.763 28.5655 159.787 28.6627V28.2758C158.609 28.2187 158.414 28.0633 158.414 27.233V22.5959C158.414 21.8628 158.318 21.3216 158.124 20.8588C157.739 19.9119 156.735 19.3137 155.577 19.3137C154.458 19.3137 153.665 19.7771 152.969 20.8205C152.93 20.0862 152.874 19.5845 152.777 19.1399ZM78.4759 19.1777C77.6833 19.4091 77.0274 19.5262 75.9268 19.6228V19.9702H76.1776C77.1811 19.9891 77.2788 20.0868 77.2976 20.9171V27.233C77.2976 28.0633 77.0862 28.2181 75.9079 28.2758V28.6627C76.9702 28.5655 77.3753 28.5455 78.0708 28.5455C78.7462 28.5455 79.1519 28.5655 80.2125 28.6627V28.2758C79.0353 28.2187 78.8422 28.0633 78.8422 27.233V23.1959C78.8422 21.2828 79.4787 20.0679 80.4822 20.0679C80.8296 20.0679 81.0627 20.2594 81.0627 20.5308V20.7039L81.0233 20.8982C81.0044 20.9759 80.9856 21.0525 80.9856 21.0902C80.9856 21.4776 81.333 21.7473 81.7776 21.7473C82.2599 21.7473 82.5884 21.3793 82.5884 20.8193C82.5884 19.8931 81.8736 19.2554 80.9084 19.2554C79.905 19.2554 79.0736 19.8931 78.6496 20.9942V20.7811C78.6102 20.2016 78.5719 19.8931 78.4759 19.1777ZM71.244 19.2554C68.9269 19.2554 67.48 21.1285 67.48 24.1033C67.48 27.0776 68.9269 28.8175 71.4171 28.8175C73.3091 28.8175 74.5445 27.6381 74.796 25.6484H74.0245C73.7925 27.2907 72.9428 28.1798 71.572 28.1798C69.8154 28.1798 69.0435 26.8284 69.0246 23.8142H74.7771C74.7388 20.8399 73.5223 19.2554 71.244 19.2554ZM95.3254 19.2554C93.0083 19.2554 91.5603 21.1285 91.5603 24.1033C91.5603 27.0776 93.0083 28.8175 95.4985 28.8175C97.3905 28.8175 98.6271 27.6381 98.8773 25.6484H98.1048C97.8734 27.2907 97.0242 28.1798 95.6534 28.1798C93.8968 28.1798 93.1237 26.8284 93.1043 23.8142H98.8585C98.8191 20.8399 97.6036 19.2554 95.3254 19.2554ZM113.739 19.2554C111.422 19.2554 109.974 21.1285 109.974 24.1033C109.974 27.0776 111.422 28.8175 113.913 28.8175C115.805 28.8175 117.04 27.6381 117.291 25.6484H116.518C116.286 27.2907 115.438 28.1798 114.067 28.1798C112.311 28.1798 111.538 26.8284 111.518 23.8142H117.273C117.233 20.8399 116.017 19.2554 113.739 19.2554ZM145.674 19.2554C143.357 19.2554 141.909 21.1285 141.909 24.1033C141.909 27.0776 143.357 28.8175 145.848 28.8175C147.74 28.8175 148.975 27.6381 149.226 25.6484H148.453C148.222 27.2907 147.374 28.1798 146.004 28.1798C144.246 28.1798 143.474 26.8284 143.455 23.8142H149.208C149.168 20.8399 147.953 19.2554 145.674 19.2554ZM161.194 19.4868L160.747 21.9982H161.135C161.83 20.2599 162.138 19.9891 163.394 19.9891H165.767L160.536 28.6044H167.176L167.68 25.8233H167.275C166.694 27.581 166.155 28.1021 164.84 28.1021H162.583L167.834 19.4868H161.194ZM71.2251 19.7571C72.48 19.7571 73.1165 20.8388 73.2331 23.1187H69.0623C69.2555 20.8976 69.9892 19.7571 71.2251 19.7571ZM95.3048 19.7571C96.5597 19.7571 97.1968 20.8388 97.3128 23.1187H93.142C93.3351 20.8976 94.0688 19.7571 95.3048 19.7571ZM113.72 19.7571C114.975 19.7571 115.612 20.8388 115.728 23.1187H111.558C111.75 20.8976 112.485 19.7571 113.72 19.7571ZM145.655 19.7571C146.91 19.7571 147.547 20.8388 147.663 23.1187H143.493C143.685 20.8976 144.42 19.7571 145.655 19.7571ZM104.146 19.9114C105.574 19.9114 106.308 21.3811 106.308 24.2199C106.308 26.905 105.594 28.2947 104.204 28.2947C102.814 28.2947 102.081 26.8467 102.081 24.0844C102.081 21.2833 102.756 19.9114 104.146 19.9114ZM134.048 22.173H135.882C136.905 22.173 137.484 22.3456 137.928 22.7902C138.372 23.2347 138.622 24.0645 138.622 24.9919C138.622 26.9233 137.657 28.0061 135.939 28.0061H135.245C134.221 28.0061 134.048 27.8501 134.048 27.0004V22.173ZM126.304 22.9388V23.9376H130.619V22.9388H126.304ZM22.0532 8.3098C22.0532 8.03266 21.9692 8.02352 21.9469 8.29952L21.0635 21.4742L21.9424 21.9885L22.0526 8.31037L22.0532 8.3098ZM17.9298 24.5519L21.6384 22.4965L20.7961 22.0279L17.8258 24.4599C17.6601 24.6022 17.7344 24.661 17.9298 24.5519Z" fill="#B7BFC7"/>
<path d="M22.1164 1.25391C10.3565 1.24819 0.818359 10.6938 0.818359 22.3348C0.818359 33.9758 10.3497 43.4116 22.1164 43.4156C33.8831 43.4191 43.4229 33.9758 43.4229 22.3348C43.4229 10.6932 33.8916 1.25391 22.1164 1.25391ZM22.1164 42.6128C14.113 42.6128 7.83312 38.4506 4.84231 32.7272L5.30459 32.5575C6.08172 33.8255 7.09713 34.9403 8.46112 36.4472C10.1422 38.2951 15.4587 41.8642 22.1124 41.8642C25.4707 41.8764 28.7763 41.0296 31.7151 39.4043C34.6545 37.7785 37.1296 35.4283 38.9053 32.5769C39.1739 32.5015 39.2596 32.3849 39.1704 32.1512C40.7698 29.3324 41.8561 25.7913 41.8561 22.3308C41.8561 20.1514 41.5361 18.3783 41.0293 16.7937C40.7156 15.8176 40.3337 14.8648 39.8864 13.9423C39.8358 13.8609 39.8097 13.7667 39.811 13.6709C39.8916 13.732 39.9567 13.8115 40.0007 13.9023C40.3098 14.4669 41.0024 15.8497 41.3275 16.7497C41.7664 17.9508 42.5481 19.6137 42.5481 22.3308C42.5527 33.4221 33.4711 42.6191 22.1164 42.6128ZM5.06173 32.2369L19.9775 21.5108L18.7016 20.7828L5.41258 31.8341C3.92003 29.1284 2.88347 25.6542 2.88347 22.3502C2.88347 11.8875 11.2091 3.41674 21.7507 3.35217L19.0313 20.2737L20.3021 21.0125L22.0107 3.35502C22.0427 3.13217 22.1952 3.13217 22.1952 3.35502L22.2958 21.9753L25.3226 20.1977L22.4221 3.34817C32.7831 3.62531 41.367 11.9858 41.367 22.3171C41.367 25.6484 40.3613 29.1284 38.8373 31.8512L25.562 20.7885L24.2838 21.5188L38.5522 31.8712C38.895 32.1152 38.7899 32.2261 38.4253 32.0226L22.4026 22.7782V26.2427L38.4619 32.3815C35.0962 37.8729 29.0254 41.386 22.0752 41.386C15.1096 41.386 9.13653 37.8746 5.77087 32.3746L21.8587 26.2319V22.7679L5.1983 32.3964C4.80288 32.6141 4.69831 32.4924 5.06173 32.2369ZM4.65145 32.4426C3.94689 30.9815 3.20461 28.9227 2.89719 27.2941C2.88233 27.2084 2.88576 27.1204 2.90862 27.037C2.96005 27.1136 2.9989 27.1981 3.02576 27.2867C3.50861 28.7815 3.93032 30.1261 5.03202 32.1455L4.65145 32.4426ZM42.5178 18.7582C42.467 18.6847 42.4279 18.6037 42.4018 18.5183C40.8447 13.7137 39.5184 11.8263 36.9625 9.01952C33.5945 5.32357 28.0974 2.46589 22.2466 2.45961C11.0639 2.45846 1.99206 11.5372 1.99206 22.7245C1.99206 26.0502 2.71719 28.9233 3.30004 30.3661C3.98289 32.0392 5.16516 34.2929 5.22402 34.3946C5.26573 34.4775 5.28687 34.5695 5.28687 34.6626C5.21007 34.6012 5.14536 34.526 5.09602 34.4409C4.75716 33.9483 3.36804 31.4455 2.93776 30.3512C1.99206 27.9707 1.29778 25.3736 1.29778 22.6479C1.29778 11.1178 10.6245 1.76762 22.1569 1.76762C32.4591 1.76762 40.7641 8.92752 42.5178 18.5114C42.535 18.5931 42.535 18.6771 42.5178 18.7582Z" fill="#B7BFC7"/>
<path d="M34.4784 29.3504L23.4985 21.9888L22.5957 22.5048L34.4258 29.4344C34.6361 29.5555 34.6807 29.4801 34.4784 29.3504Z" fill="#B7BFC7"/>
</g>
<defs>
<clipPath id="clip0_1_1537">
<rect width="169.141" height="44" fill="white" transform="translate(0.109375)"/>
</clipPath>
</defs>
</svg>
