<svg width="52" height="29" viewBox="0 0 52 29" fill="none" xmlns="http://www.w3.org/2000/svg">
<path d="M35.923 19.2801C35.7825 19.1394 35.7036 18.9488 35.7036 18.7501C35.7036 18.5513 35.7825 18.3607 35.923 18.2201L41.643 12.5001L35.923 6.78007C35.7905 6.63781 35.7184 6.44975 35.7218 6.25544C35.7252 6.06112 35.8037 5.87567 35.941 5.73807C36.0786 5.60082 36.264 5.52227 36.4583 5.51891C36.6526 5.51555 36.8407 5.58766 36.983 5.72007L43.233 11.9701C43.3734 12.1107 43.4523 12.3013 43.4523 12.5001C43.4523 12.6988 43.3734 12.8894 43.233 13.0301L36.983 19.2801C36.8423 19.4205 36.6517 19.4994 36.453 19.4994C36.2542 19.4994 36.0636 19.4205 35.923 19.2801Z" fill="#8B949E"/>
<path d="M15.2798 5.72007C15.4203 5.8607 15.4992 6.05132 15.4992 6.25007C15.4992 6.44882 15.4203 6.63945 15.2798 6.78007L9.55983 12.5001L15.2798 18.2201C15.3786 18.3117 15.4507 18.4283 15.4887 18.5576C15.5268 18.6868 15.5292 18.824 15.4958 18.9545C15.4625 19.085 15.3945 19.2041 15.2991 19.2992C15.2037 19.3944 15.0844 19.462 14.9538 19.4951C14.8235 19.5285 14.6865 19.5262 14.5573 19.4883C14.4282 19.4505 14.3116 19.3786 14.2198 19.2801L7.96983 13.0301C7.82938 12.8894 7.75049 12.6988 7.75049 12.5001C7.75049 12.3013 7.82938 12.1107 7.96983 11.9701L14.2198 5.72007C14.3605 5.57962 14.5511 5.50073 14.7498 5.50073C14.9486 5.50073 15.1392 5.57962 15.2798 5.72007Z" fill="#8B949E"/>
</svg>
