<svg width="74" height="32" viewBox="0 0 74 32" fill="none" xmlns="http://www.w3.org/2000/svg">
<g clip-path="url(#clip0_1_1533)">
<path d="M31.7045 11.1678C35.1332 2.76048 28.7184 0.475098 24.5524 0.475098H10.7272C11.1296 0.727827 11.4256 1.11806 11.5596 1.57262C11.6937 2.02717 11.6566 2.5148 11.4553 2.94406L3.39985 28.5699C3.20712 29.0682 2.91621 29.5231 2.54423 29.9077C2.17225 30.2923 1.7267 30.5989 1.23389 30.8094H12.4138C11.9706 30.6755 11.5982 30.373 11.3773 29.9675C11.1565 29.5622 11.105 29.0864 11.2341 28.6434L14.1558 19.3731C14.1558 19.3731 27.6216 21.2089 31.6678 11.1678H31.7045ZM20.838 2.8339C22.3035 2.8339 26.3681 3.03583 23.732 10.6722C20.9671 18.6941 14.9116 17.0419 14.9116 17.0419L19.3818 2.8339H20.8287H20.838Z" fill="#B7BFC7"/>
<path d="M40.6539 30.8275H48.1841C45.4216 29.8167 42.9078 28.2301 40.8105 26.1741C42.4731 24.5998 43.48 22.4603 43.631 20.1805H39.7322C39.9584 20.3249 40.1449 20.523 40.2751 20.7569C40.4056 20.9907 40.4755 21.2532 40.4788 21.5206C40.4506 22.5447 40.0991 23.5338 39.4741 24.3477C38.0541 22.4544 37.1064 20.2524 36.7091 17.9227C38.635 17.1438 40.4484 16.1129 42.101 14.8572C42.6797 14.4229 43.1592 13.8709 43.5071 13.2379C43.8551 12.605 44.064 11.9055 44.1194 11.1859V11.0757C44.1217 10.6262 44.0331 10.1808 43.8588 9.76619C43.6848 9.35144 43.4285 8.97587 43.1055 8.66188C42.4641 8.08932 41.6939 7.67875 40.8599 7.4647C40.0257 7.25066 39.1522 7.23941 38.3128 7.43195C37.0441 7.68431 35.8629 8.25985 34.8843 9.10239C32.6168 11.2318 32.3311 14.7288 32.3311 16.3166V17.1609L31.9716 17.3078C30.3126 17.9227 25.8793 19.0883 24.3033 22.7229C23.9758 23.5564 23.81 24.4439 23.8149 25.3388C23.7953 26.4421 24.0928 27.528 24.672 28.4686C25.7871 30.2124 27.6858 31.3139 30.7182 31.2222C34.0179 31.1671 37.2714 28.9275 37.8428 28.4686C38.6809 29.3254 39.6078 30.0915 40.6078 30.7541L40.6539 30.8275ZM40.6539 10.5526C40.2668 12.994 37.0871 15.4629 36.3128 15.7935C36.0759 13.9521 36.4548 12.0844 37.3911 10.4792C38.1469 9.30431 39.1701 8.79038 39.9902 9.08406C40.6539 9.31348 40.7184 9.91008 40.6632 10.5526H40.6539ZM36.2668 26.8899C35.0875 27.5663 33.7892 28.0117 32.4418 28.2024C30.9209 28.3492 28.3956 27.7619 28.4141 24.733C28.4141 22.1448 31.2343 20.2541 32.7736 19.5932C33.4713 22.2227 34.6593 24.6979 36.276 26.8899H36.2668Z" fill="#B7BFC7"/>
<path d="M63.5213 2.86165C67.9913 1.78779 71.678 5.27555 72.0099 5.51419L73.2818 1.47575C71.5214 0.943403 58.6823 -3.37958 49.613 6.92766C44.0369 13.2698 42.6729 26.2572 49.7421 29.7449C57.3091 33.4713 65.6687 29.1759 66.3323 28.873L69.7425 17.905C69.9193 17.2531 70.2614 16.6574 70.7358 16.1753C71.2104 15.6931 71.8015 15.3406 72.4523 15.1514H60.4704C61.0117 15.2997 61.4722 15.6547 61.7519 16.1395C62.0314 16.6242 62.1075 17.1994 61.9636 17.7397L58.5073 28.7077C58.0464 28.7904 48.3688 31.1951 53.7883 14.3622C54.9772 10.7459 58.2307 4.12827 63.5488 2.85249L63.5213 2.86165Z" fill="#B7BFC7"/>
</g>
<defs>
<clipPath id="clip0_1_1533">
<rect width="72.6406" height="32" fill="white" transform="translate(0.96875)"/>
</clipPath>
</defs>
</svg>
