<svg width="21" height="21" viewBox="0 0 21 21" fill="none" xmlns="http://www.w3.org/2000/svg">
<path d="M9.28889 4.05998C8.92277 3.69387 8.32917 3.69387 7.96306 4.05998C7.59695 4.4261 7.59695 5.0197 7.96306 5.38581L9.28889 4.05998ZM13.9385 10.0354L14.6013 10.6983C14.9675 10.3322 14.9675 9.7386 14.6013 9.37248L13.9385 10.0354ZM7.96306 14.685C7.59695 15.0511 7.59695 15.6446 7.96306 16.0108C8.32917 16.3769 8.92277 16.3769 9.28889 16.0108L7.96306 14.685ZM7.96306 5.38581L13.2756 10.6983L14.6013 9.37248L9.28889 4.05998L7.96306 5.38581ZM13.2756 9.37248L7.96306 14.685L9.28889 16.0108L14.6013 10.6983L13.2756 9.37248Z" fill="white"/>
<path d="M2.37598 10.0354H13.9385H2.37598Z" fill="white"/>
<path d="M2.37598 10.0354H13.9385" stroke="white" stroke-width="1.875" stroke-linecap="round" stroke-dasharray="12.5 12.5"/>
</svg>
