<svg width="164" height="32" viewBox="0 0 164 32" fill="none" xmlns="http://www.w3.org/2000/svg">
<g clip-path="url(#clip0_1_1524)">
<path d="M97.2345 9.46604V6.14258H85.3784V23.2421H97.2345V19.774H90.1785V15.9834H96.0468V12.664H90.1785V9.46604H97.2345Z" fill="#B7BFC7"/>
<path d="M118.141 19.8679H110.734V6.14258H105.875V23.2421H118.141V19.8679Z" fill="#B7BFC7"/>
<path d="M157.276 12.6592C153.998 11.9205 152.849 11.8349 152.849 10.5304C152.849 9.31994 154.475 8.94343 155.409 8.94343C156.921 8.94343 158.706 9.29594 160.525 10.2287L161.848 7.08211C159.984 6.06573 157.592 5.64258 155.291 5.64258C150.769 5.64258 147.734 7.47715 147.607 11.0537C147.478 14.3155 150.131 15.5355 152.568 16.0389C154.917 16.5244 157.301 16.94 157.349 18.3357C157.392 19.623 156.235 20.1744 154.05 20.1744C152.028 20.1744 150.147 19.5242 148.225 18.7191L147.101 22.1393C149.311 23.0788 151.553 23.5966 153.866 23.5966C157.078 23.5966 159.422 23.0953 161.147 21.4755C162.343 20.3631 162.735 19.0202 162.735 17.7384C162.738 15.0356 161.053 13.5131 157.276 12.6592Z" fill="#B7BFC7"/>
<path d="M78.4852 9.51818V6.14258H63.5728V9.51818H68.6108V23.2421H73.4411V9.51818H78.4852Z" fill="#B7BFC7"/>
<path d="M134.718 6.14258V17.0066C134.718 17.8578 134.718 18.0929 134.667 18.4242C134.511 19.4598 133.508 20.0606 131.908 20.0819C130.722 20.0627 129.854 19.7122 129.45 19.0929C129.246 18.7747 129.148 18.2027 129.148 17.2892V6.14258H124.108V17.927C124.108 19.5599 124.326 20.2972 125.064 21.2292C126.28 22.7497 128.652 23.5493 131.917 23.5493C131.954 23.5493 131.986 23.5493 132.025 23.5493C132.041 23.5493 132.072 23.5493 132.096 23.5493C136.468 23.5493 138.726 21.8444 139.378 20.2492C139.705 19.4756 139.729 19.1093 139.729 17.5484V6.14258H134.718Z" fill="#B7BFC7"/>
<path d="M65.849 1.4607L37.5884 7.08717V9.05821L37.6783 9.0349C56.3476 4.49682 65.8483 1.76727 65.9251 1.74806C66.0307 1.72062 66.0678 1.63833 66.0534 1.56906C66.0376 1.49637 65.9614 1.43601 65.849 1.4607Z" fill="#B7BFC7"/>
<path d="M42.8719 0.92277C41.4982 1.00095 38.9545 3.03578 37.5582 4.24419C31.9982 9.05453 27.8641 13.476 24.8582 18.1066C18.5919 21.463 10.6013 24.9148 2.66915 27.6087L2.47781 27.6731L0.951172 31.7839L1.82285 31.4472C6.86911 29.5242 15.2917 25.9127 22.9269 21.8979C22.4969 23.0446 22.2802 24.0987 22.2802 25.0595C22.2802 25.7761 22.4002 26.4428 22.6396 27.0483C23.1196 28.2581 24.066 29.1744 25.378 29.6949C27.3319 30.4747 29.9977 30.4891 33.0393 29.5681C40.8096 27.2129 50.0263 19.9817 52.0331 18.5435L52.1099 18.4894C52.1887 18.4325 52.1943 18.3467 52.1613 18.2884C52.1174 18.2219 52.0249 18.2041 51.9487 18.2507L51.8499 18.3104C49.6965 19.6031 39.2322 25.816 32.4303 27.6402C28.9655 28.5696 26.3252 28.062 25.3293 26.6692C24.9837 26.1932 24.817 25.591 24.817 24.8888C24.817 23.5178 25.4624 21.7724 26.7051 19.8322C27.849 19.1814 28.9176 18.5449 29.8804 17.94C36.5164 14.2105 44.1619 6.95935 44.4884 2.53307C44.4898 2.5029 44.4898 2.46792 44.4898 2.435C44.4898 2.053 44.3245 1.66003 44.0344 1.36992C43.723 1.05239 43.3129 0.893966 42.8719 0.92277ZM42.1319 3.03235C42.5674 2.75048 42.6929 2.92673 42.5646 3.24496C42.3576 3.75315 41.3994 6.81053 34.2855 12.651C32.4289 14.1715 31.1087 15.0253 28.4354 16.6081C32.813 10.4735 39.2041 4.93345 42.1319 3.03235Z" fill="#B7BFC7"/>
<path d="M37.496 7.10547L7.7629 13.4966L6.61621 16.589L37.5885 9.05731L38.5466 8.51621L38.5199 7.1089L37.496 7.10547Z" fill="#B7BFC7"/>
</g>
<defs>
<clipPath id="clip0_1_1524">
<rect width="162.812" height="32" fill="white" transform="translate(0.328125)"/>
</clipPath>
</defs>
</svg>
