<svg width="23" height="22" viewBox="0 0 23 22" fill="none" xmlns="http://www.w3.org/2000/svg">
<path d="M7.32812 1.75C7.32812 0.784 8.11212 0 9.07812 0H14.5781C15.5441 0 16.3281 0.784 16.3281 1.75V4H21.0781C22.0441 4 22.8281 4.784 22.8281 5.75V20.25C22.8281 20.7141 22.6437 21.1592 22.3156 21.4874C21.9874 21.8156 21.5423 22 21.0781 22H2.57812C2.114 22 1.66888 21.8156 1.34069 21.4874C1.0125 21.1592 0.828125 20.7141 0.828125 20.25V5.75C0.828125 4.784 1.61212 4 2.57812 4H7.32812V1.75ZM2.32812 11.99V20.25C2.32812 20.388 2.44012 20.5 2.57812 20.5H21.0781C21.1444 20.5 21.208 20.4737 21.2549 20.4268C21.3018 20.3799 21.3281 20.3163 21.3281 20.25V11.99C20.5608 12.6431 19.5858 13.0012 18.5781 13H5.07812C4.07049 13.0012 3.09545 12.6431 2.32812 11.99ZM21.3281 8.75V5.75C21.3281 5.6837 21.3018 5.62011 21.2549 5.57322C21.208 5.52634 21.1444 5.5 21.0781 5.5H2.57812C2.51182 5.5 2.44823 5.52634 2.40135 5.57322C2.35446 5.62011 2.32812 5.6837 2.32812 5.75V8.75C2.32812 9.47935 2.61786 10.1788 3.13358 10.6945C3.64931 11.2103 4.34878 11.5 5.07812 11.5H18.5781C19.3075 11.5 20.0069 11.2103 20.5227 10.6945C21.0384 10.1788 21.3281 9.47935 21.3281 8.75ZM14.8281 1.75C14.8281 1.6837 14.8018 1.62011 14.7549 1.57322C14.708 1.52634 14.6444 1.5 14.5781 1.5H9.07812C9.01182 1.5 8.94823 1.52634 8.90135 1.57322C8.85446 1.62011 8.82812 1.6837 8.82812 1.75V4H14.8281V1.75Z" fill="white"/>
</svg>
