<svg width="45" height="44" viewBox="0 0 45 44" fill="none" xmlns="http://www.w3.org/2000/svg">
<g clip-path="url(#clip0_1_1586)">
<path d="M44.6563 22C44.6563 9.84974 34.8065 0 22.6563 0C10.506 0 0.65625 9.84974 0.65625 22C0.65625 34.1503 10.506 44 22.6563 44C34.8065 44 44.6563 34.1503 44.6563 22Z" fill="#002D11"/>
<path d="M26.7032 29.2612C26.7032 21.9997 18.6069 21.9997 18.6069 14.7383" stroke="#3FB950" stroke-width="2.61905" stroke-miterlimit="10" stroke-linecap="round" stroke-linejoin="round"/>
<path d="M30.9674 22.1253C24.6785 18.4931 20.6303 25.5056 14.3413 21.8733" stroke="#3FB950" stroke-width="2.61905" stroke-miterlimit="10" stroke-linecap="round" stroke-linejoin="round"/>
<path d="M26.9244 14.8643C20.6354 18.4965 24.6835 25.5061 18.3945 29.1353" stroke="#3FB950" stroke-width="2.61905" stroke-miterlimit="10" stroke-linecap="round" stroke-linejoin="round"/>
<path d="M18.6113 14.7383C18.6113 21.9997 26.7076 21.9997 26.7076 29.2612" stroke="#3FB950" stroke-width="2.61905" stroke-miterlimit="10" stroke-linecap="round" stroke-linejoin="round"/>
<path d="M14.3452 21.8733C20.6342 25.5056 24.6824 18.4931 30.9713 22.1253" stroke="#3FB950" stroke-width="2.61905" stroke-miterlimit="10" stroke-linecap="round" stroke-linejoin="round"/>
<path d="M18.3945 29.1353C24.6835 25.5031 20.6354 18.4935 26.9244 14.8643" stroke="#3FB950" stroke-width="2.61905" stroke-miterlimit="10" stroke-linecap="round" stroke-linejoin="round"/>
</g>
<defs>
<clipPath id="clip0_1_1586">
<rect width="44" height="44" fill="white" transform="translate(0.65625)"/>
</clipPath>
</defs>
</svg>
